<svg xmlns="http://www.w3.org/2000/svg" viewBox="0 0 1600 1000" role="img" aria-label="before placeholder">
  <defs>
    <radialGradient id="lip" cx="0.5" cy="0.5" r="0.75">
      <stop offset="0" stop-color="#FFFFFF"/>
      <stop offset="1" stop-color="#FAF8F4"/>
    </radialGradient>
  </defs>
  <rect width="1600" height="1000" fill="url(#lip)"/>
  <path d="M300 500 q500 460 1000 0 q-500 240 -1000 0 Z" fill="#1c0f0f"/>
  <g><rect x="360" y="444" width="74" height="130" rx="20" fill="#C9B98F" fill-opacity="0.85"/><rect x="450" y="422" width="74" height="138" rx="20" fill="#C9B98F" fill-opacity="0.85"/><rect x="540" y="444" width="74" height="146" rx="20" fill="#C9B98F" fill-opacity="0.85"/><rect x="630" y="422" width="74" height="130" rx="20" fill="#C9B98F" fill-opacity="0.85"/><rect x="720" y="444" width="74" height="138" rx="20" fill="#C9B98F" fill-opacity="0.85"/><rect x="810" y="422" width="74" height="146" rx="20" fill="#C9B98F" fill-opacity="0.85"/><rect x="900" y="444" width="74" height="130" rx="20" fill="#C9B98F" fill-opacity="0.85"/><rect x="990" y="422" width="74" height="138" rx="20" fill="#C9B98F" fill-opacity="0.85"/><rect x="1080" y="444" width="74" height="146" rx="20" fill="#C9B98F" fill-opacity="0.85"/><rect x="1170" y="422" width="74" height="130" rx="20" fill="#C9B98F" fill-opacity="0.85"/></g>
  <path d="M300 500 q500 460 1000 0" fill="none" stroke="#91712C" stroke-opacity="0.25" stroke-width="3"/>
</svg>
